# xmcd
#
# Track frame offsets:
#	225
#	22301
#	39780
#	64488
#	83220
#	99409
#	115122
#	126946
#	142282
#	164593
#	176916
#	192242
#	205403
#
# Disc length: 3083 seconds
#
# Revision: 1
# Processed by: cddbd v1.5.2PL0 Copyright (c) Steve Scherf et al.
# Submitted via: audiograbber 1.83.01
#
DISCID=c70c080d
DTITLE=X Miss Americas - Freedom and Justice
DYEAR=2002
DGENRE=Blues
TTITLE0=Freedom and Justice
TTITLE1=Moonshine
TTITLE2=Fool for you
TTITLE3=Cross your fingers
TTITLE4=dolly
TTITLE5=so much more
TTITLE6=this city that city
TTITLE7=grow to know
TTITLE8=why do i plead
TTITLE9=telluride
TTITLE10=kaliaja
TTITLE11=to please you
TTITLE12=voodoo daddy hoochie coochie big boss man
EXTD=
EXTT0=
EXTT1=
EXTT2=
EXTT3=
EXTT4=
EXTT5=
EXTT6=
EXTT7=
EXTT8=
EXTT9=
EXTT10=
EXTT11=
EXTT12=
PLAYORDER=
